<svg width="23" height="23" viewBox="0 0 23 23" fill="none" xmlns="http://www.w3.org/2000/svg">
<path fill-rule="evenodd" clip-rule="evenodd" d="M7.11246 0.174398C8.28546 0.120398 8.65946 0.108398 11.6475 0.108398C14.6355 0.108398 15.0095 0.121398 16.1815 0.174398C17.3535 0.227398 18.1535 0.414398 18.8535 0.685398C19.5865 0.962398 20.2515 1.3954 20.8015 1.9554C21.3615 2.5044 21.7935 3.1684 22.0695 3.9024C22.3415 4.6024 22.5275 5.4024 22.5815 6.5724C22.6355 7.7474 22.6475 8.1214 22.6475 11.1084C22.6475 14.0964 22.6345 14.4704 22.5815 15.6434C22.5285 16.8134 22.3415 17.6134 22.0695 18.3134C21.7935 19.0475 21.3607 19.7126 20.8015 20.2624C20.2515 20.8224 19.5865 21.2544 18.8535 21.5304C18.1535 21.8024 17.3535 21.9884 16.1835 22.0424C15.0095 22.0964 14.6355 22.1084 11.6475 22.1084C8.65946 22.1084 8.28546 22.0954 7.11246 22.0424C5.94246 21.9894 5.14246 21.8024 4.44246 21.5304C3.70838 21.2544 3.04328 20.8217 2.49346 20.2624C1.93384 19.7131 1.50078 19.0483 1.22446 18.3144C0.953461 17.6144 0.767461 16.8144 0.713461 15.6444C0.659461 14.4694 0.647461 14.0954 0.647461 11.1084C0.647461 8.1204 0.660461 7.7464 0.713461 6.5744C0.766461 5.4024 0.953461 4.6024 1.22446 3.9024C1.50118 3.16848 1.93458 2.50371 2.49446 1.9544C3.0435 1.3949 3.70793 0.961842 4.44146 0.685398C5.14146 0.414398 5.94146 0.228398 7.11146 0.174398H7.11246ZM16.0925 2.1544C14.9325 2.1014 14.5845 2.0904 11.6475 2.0904C8.71046 2.0904 8.36246 2.1014 7.20246 2.1544C6.12946 2.2034 5.54746 2.3824 5.15946 2.5334C4.64646 2.7334 4.27946 2.9704 3.89446 3.3554C3.52951 3.71045 3.24864 4.14268 3.07246 4.6204C2.92146 5.0084 2.74246 5.5904 2.69346 6.6634C2.64046 7.8234 2.62946 8.1714 2.62946 11.1084C2.62946 14.0454 2.64046 14.3934 2.69346 15.5534C2.74246 16.6264 2.92146 17.2084 3.07246 17.5964C3.24846 18.0734 3.52946 18.5064 3.89446 18.8614C4.24946 19.2264 4.68246 19.5074 5.15946 19.6834C5.54746 19.8344 6.12946 20.0134 7.20246 20.0624C8.36246 20.1154 8.70946 20.1264 11.6475 20.1264C14.5855 20.1264 14.9325 20.1154 16.0925 20.0624C17.1655 20.0134 17.7475 19.8344 18.1355 19.6834C18.6485 19.4834 19.0155 19.2464 19.4005 18.8614C19.7655 18.5064 20.0465 18.0734 20.2225 17.5964C20.3735 17.2084 20.5525 16.6264 20.6015 15.5534C20.6545 14.3934 20.6655 14.0454 20.6655 11.1084C20.6655 8.1714 20.6545 7.8234 20.6015 6.6634C20.5525 5.5904 20.3735 5.0084 20.2225 4.6204C20.0225 4.1074 19.7855 3.7404 19.4005 3.3554C19.0454 2.99047 18.6132 2.70961 18.1355 2.5334C17.7475 2.3824 17.1655 2.2034 16.0925 2.1544ZM10.2425 14.4994C11.0271 14.826 11.9008 14.8701 12.7144 14.6241C13.5279 14.3781 14.2309 13.8573 14.7031 13.1506C15.1753 12.444 15.3875 11.5953 15.3035 10.7495C15.2195 9.90374 14.8445 9.11337 14.2425 8.5134C13.8587 8.12988 13.3947 7.83621 12.8838 7.65355C12.3729 7.47088 11.8279 7.40376 11.288 7.45701C10.748 7.51027 10.2266 7.68258 9.76126 7.96153C9.29592 8.24048 8.8982 8.61914 8.59676 9.07025C8.29532 9.52136 8.09765 10.0337 8.01798 10.5704C7.9383 11.107 7.97861 11.6547 8.136 12.1739C8.29339 12.6931 8.56394 13.171 8.92818 13.5731C9.29242 13.9752 9.74129 14.2916 10.2425 14.4994ZM7.64946 7.1104C8.17449 6.58537 8.79778 6.1689 9.48376 5.88476C10.1697 5.60062 10.905 5.45437 11.6475 5.45437C12.39 5.45437 13.1252 5.60062 13.8112 5.88476C14.4971 6.1689 15.1204 6.58537 15.6455 7.1104C16.1705 7.63542 16.587 8.25872 16.8711 8.9447C17.1552 9.63067 17.3015 10.3659 17.3015 11.1084C17.3015 11.8509 17.1552 12.5861 16.8711 13.2721C16.587 13.9581 16.1705 14.5814 15.6455 15.1064C14.5851 16.1667 13.147 16.7624 11.6475 16.7624C10.1479 16.7624 8.7098 16.1667 7.64946 15.1064C6.58913 14.0461 5.99344 12.6079 5.99344 11.1084C5.99344 9.60886 6.58913 8.17073 7.64946 7.1104ZM18.5555 6.2964C18.6856 6.17367 18.7897 6.02608 18.8618 5.86237C18.9338 5.69867 18.9723 5.52217 18.9749 5.34333C18.9775 5.16449 18.9442 4.98695 18.8769 4.82121C18.8097 4.65547 18.7099 4.50491 18.5834 4.37844C18.4569 4.25197 18.3064 4.15216 18.1407 4.08492C17.9749 4.01768 17.7974 3.98437 17.6185 3.98698C17.4397 3.98959 17.2632 4.02805 17.0995 4.10009C16.9358 4.17214 16.7882 4.27629 16.6655 4.4064C16.4268 4.65943 16.2961 4.99552 16.3012 5.34333C16.3062 5.69114 16.4467 6.02328 16.6926 6.26924C16.9386 6.51521 17.2707 6.65563 17.6185 6.6607C17.9663 6.66577 18.3024 6.53509 18.5555 6.2964Z" fill="#024BB9"/>
</svg>
