<svg width="24" height="20" viewBox="0 0 24 20" fill="none" xmlns="http://www.w3.org/2000/svg">
<path d="M23.3535 3.06867C22.5185 3.43867 21.6215 3.68867 20.6785 3.80167C21.6515 3.21946 22.3794 2.30314 22.7265 1.22367C21.8123 1.76666 20.8118 2.14886 19.7685 2.35367C19.0668 1.60453 18.1375 1.10799 17.1248 0.941143C16.1121 0.774291 15.0726 0.94646 14.1677 1.43092C13.2628 1.91538 12.5432 2.68503 12.1206 3.62037C11.698 4.55571 11.596 5.60442 11.8305 6.60367C9.97815 6.51066 8.16609 6.02922 6.51189 5.19057C4.85768 4.35193 3.3983 3.17483 2.22846 1.73567C1.82846 2.42567 1.59846 3.22567 1.59846 4.07767C1.59801 4.84466 1.78689 5.59991 2.14834 6.2764C2.50979 6.95289 3.03262 7.52971 3.67046 7.95567C2.93074 7.93213 2.20733 7.73225 1.56046 7.37267V7.43267C1.56039 8.50841 1.93249 9.55105 2.61364 10.3837C3.29479 11.2163 4.24303 11.7876 5.29746 12.0007C4.61124 12.1864 3.8918 12.2137 3.19346 12.0807C3.49096 13.0063 4.07046 13.8157 4.85083 14.3956C5.6312 14.9755 6.57338 15.2968 7.54546 15.3147C5.89529 16.6101 3.85735 17.3128 1.75946 17.3097C1.38784 17.3098 1.01654 17.2881 0.647461 17.2447C2.77694 18.6138 5.2558 19.3405 7.78746 19.3377C16.3575 19.3377 21.0425 12.2397 21.0425 6.08367C21.0425 5.88367 21.0375 5.68167 21.0285 5.48167C21.9398 4.82264 22.7264 4.00656 23.3515 3.07167L23.3535 3.06867Z" fill="#024BB9"/>
</svg>
