<svg width="226" height="210" viewBox="0 0 226 210" fill="none" xmlns="http://www.w3.org/2000/svg">
<path fill-rule="evenodd" clip-rule="evenodd" d="M116.586 2.41636C139.825 -1.64741 164.874 1.48063 184.571 14.4659C204.73 27.7557 218.267 49.691 223.908 73.1682C229.287 95.5563 221.197 117.83 214.716 139.924C208.02 162.753 205.73 190.32 185.753 203.239C165.907 216.074 140.218 203.715 116.586 203.386C93.4174 203.063 69.154 212.414 48.8059 201.33C27.4231 189.684 14.3343 166.865 6.94207 143.665C-0.420238 120.559 -3.48883 94.1514 7.81971 72.6991C18.5409 52.3608 44.6177 48.04 63.928 35.562C81.785 24.0232 95.6429 6.07854 116.586 2.41636Z" fill="#87BEE4"/>
</svg>
